# xmcd
#
# Track frame offsets: 
#        150
#        17691
#        26593
#        39719
#        50769
#        67355
#        81195
#        93326
#        108509
#        127615
#        147029
#
# Disc length: 2185 seconds
#
# Revision: 0
# Processed by: cddbd v1.5.2PL0 Copyright (c) Steve Scherf et al.
# Submitted via: ExactAudioCopy v1.2
#
DISCID=9208870b
DTITLE=Scotch Hollow - Little Tortuga
DYEAR=2017
DGENRE=Blues
TTITLE0=Hocus Pocus
TTITLE1=Kansas City Pepper
TTITLE2=Drop in the Bucket
TTITLE3=Too Bad Poor Boy
TTITLE4=Nobody but You
TTITLE5=Little Tortuga
TTITLE6=Honey Baby Why
TTITLE7=Bamma Lamma Jamma and Thelonious Dude
TTITLE8=Moaning at Midnight
TTITLE9=Keep Your Lamp Trimmed and Burning
TTITLE10=City by the Sea
EXTD=
EXTT0=
EXTT1=
EXTT2=
EXTT3=
EXTT4=
EXTT5=
EXTT6=
EXTT7=
EXTT8=
EXTT9=
EXTT10=
PLAYORDER=
